<svg width="65" height="64" viewBox="0 0 65 64" fill="none" xmlns="http://www.w3.org/2000/svg">
<g clip-path="url(#clip0_9_109)">
<path fill-rule="evenodd" clip-rule="evenodd" d="M8.63675 1.33941C7.77457 0.506684 6.61981 0.0459095 5.4212 0.0563252C4.22259 0.0667408 3.07602 0.547513 2.22844 1.39509C1.38086 2.24267 0.900083 3.38924 0.889667 4.58786C0.879252 5.78647 1.34003 6.94123 2.17275 7.80341L22.3642 32.1838L2.17275 56.1966C1.73613 56.6183 1.38787 57.1227 1.14829 57.6804C0.908701 58.2381 0.782593 58.838 0.777318 59.445C0.772043 60.052 0.887708 60.654 1.11756 61.2158C1.34742 61.7776 1.68686 62.288 2.11609 62.7172C2.54531 63.1464 3.05572 63.4859 3.61753 63.7157C4.17934 63.9456 4.78131 64.0613 5.3883 64.056C5.99529 64.0507 6.59515 63.9246 7.15288 63.685C7.71062 63.4454 8.21505 63.0972 8.63675 62.6606L33.0309 42.8504L57.0299 62.6606C57.8921 63.4933 59.0468 63.954 60.2454 63.9436C61.4441 63.9332 62.5906 63.4524 63.4382 62.6049C64.2858 61.7573 64.7666 60.6107 64.777 59.4121C64.7874 58.2135 64.3266 57.0587 63.4939 56.1966L43.6975 32.1838L63.4939 7.80341C64.3266 6.94123 64.7874 5.78647 64.777 4.58786C64.7666 3.38924 64.2858 2.24267 63.4382 1.39509C62.5906 0.547513 61.4441 0.0667408 60.2454 0.0563252C59.0468 0.0459095 57.8921 0.506684 57.0299 1.33941L33.0309 21.5171L8.63675 1.33941Z" fill="white"/>
</g>
<defs>
<clipPath id="clip0_9_109">
<rect width="64" height="64" fill="white" transform="translate(0.833328)"/>
</clipPath>
</defs>
</svg>
